<svg width="34" height="34" viewBox="0 0 34 34" fill="none" xmlns="http://www.w3.org/2000/svg">
<path d="M33.9291 29.6899L33.8688 29.7503C33.7978 29.8661 33.6846 29.9497 33.5532 29.9835C33.4217 30.0173 33.2823 29.9987 33.1643 29.9316C28.2697 27.0384 22.6934 25.5021 17.0088 25.4809C11.3242 25.4596 5.73656 26.9542 0.820511 29.8108C0.702522 29.8779 0.563107 29.8965 0.431678 29.8626C0.300249 29.8288 0.187087 29.7452 0.116072 29.6295L0.0758223 29.5489C0.0399388 29.4911 0.0161262 29.4267 0.00581945 29.3595C-0.00448735 29.2922 -0.00107892 29.2236 0.0158497 29.1577C0.0327783 29.0918 0.0628764 29.03 0.104316 28.9761C0.145756 28.9222 0.197681 28.8772 0.256963 28.8439C5.15108 26.0374 9.2176 21.9869 12.045 17.1023C14.8724 12.2177 16.3604 6.67228 16.3584 1.02726V0.523704C16.3583 0.38823 16.4107 0.257986 16.5045 0.160332C16.5983 0.0626773 16.7263 0.00521051 16.8616 0C16.9303 0 16.9984 0.0135446 17.0619 0.0398631C17.1253 0.0661817 17.183 0.104761 17.2316 0.153392C17.2802 0.202022 17.3188 0.259756 17.3451 0.323294C17.3714 0.386833 17.3849 0.45493 17.3849 0.523704V1.02726C17.3801 6.72049 18.8918 12.3121 21.7644 17.2262C24.637 22.1403 28.7666 26.1992 33.7279 28.9849C33.7888 29.0165 33.8427 29.0601 33.8862 29.1133C33.9296 29.1664 33.9618 29.2279 33.9806 29.2939C33.9995 29.36 34.0046 29.4291 33.9958 29.4972C33.9869 29.5653 33.9643 29.6309 33.9291 29.6899Z" fill="#40AD74"/>
<path d="M30.9999 20.1112V21.4496C31.0019 21.5482 30.9771 21.6455 30.9283 21.7308C30.8795 21.8162 30.8085 21.8863 30.7231 21.9337C30.6376 21.9811 30.541 22.0038 30.4436 21.9995C30.3463 21.9951 30.252 21.9638 30.171 21.909C29.1516 21.2251 28.2058 20.4351 27.3489 19.5519C24.1728 16.3569 22.2691 12.0908 22.0007 7.56646C21.9961 7.4743 22.015 7.38248 22.0554 7.2998C22.0959 7.21711 22.1567 7.14633 22.232 7.09422C22.3072 7.04211 22.3944 7.01041 22.4852 7.00216C22.576 6.99391 22.6674 7.00938 22.7506 7.04709C25.2149 8.1996 27.3014 10.0425 28.7633 12.3577C30.2253 14.6729 31.0014 17.3635 30.9999 20.1112Z" fill="#40AD74"/>
<path d="M10.0586 6.74346L11.1957 6.06422C11.2811 6.01846 11.3769 5.99647 11.4734 6.00046C11.5698 6.00446 11.6635 6.0343 11.745 6.08698C11.8266 6.13966 11.893 6.21331 11.9377 6.30051C11.9824 6.38771 12.0037 6.48537 11.9995 6.58364C11.92 7.81224 11.723 9.03 11.4113 10.2196C10.2619 14.5971 7.58518 18.3972 3.88297 20.9077C3.80663 20.9602 3.71816 20.9915 3.62631 20.9985C3.53446 21.0055 3.44241 20.988 3.35925 20.9476C3.2761 20.9073 3.20471 20.8455 3.15215 20.7684C3.09959 20.6913 3.06767 20.6016 3.05955 20.5081C2.81196 17.7719 3.33974 15.0208 4.5803 12.581C5.82086 10.1413 7.72214 8.11531 10.0586 6.74346Z" fill="#40AD74"/>
<path d="M9.42841 31.9024L8.28003 31.1616C8.19367 31.1101 8.12187 31.0335 8.07249 30.9401C8.02311 30.8466 7.99807 30.7401 8.00012 30.632C8.00216 30.524 8.03122 30.4186 8.08409 30.3276C8.13696 30.2365 8.21161 30.1632 8.29984 30.1158C9.39692 29.5219 10.5441 29.0476 11.7251 28.6995C16.0665 27.4106 20.6864 27.9143 24.7135 30.1158C24.7947 30.1626 24.8636 30.2315 24.9136 30.3161C24.9635 30.4006 24.9929 30.4979 24.9989 30.5985C25.0048 30.6992 24.9872 30.7998 24.9476 30.8908C24.9081 30.9817 24.8479 31.06 24.773 31.118C22.5512 32.8497 19.9248 33.8441 17.2051 33.9831C14.4854 34.1221 11.7865 33.4 9.42841 31.9024Z" fill="#40AD74"/>
</svg>
