<svg width="176" height="35" viewBox="0 0 176 35" fill="none" xmlns="http://www.w3.org/2000/svg">
<g clip-path="url(#clip0_405_13054)">
<path d="M48.3007 33.8095V34.1991H47.9406V33.8095C46.7202 33.7662 46 33.1385 46 32.0996C46 31.0606 46.7202 30.4329 47.9406 30.3896V30H48.3007V30.3896C49.5211 30.4329 50.2413 31.0606 50.2413 32.0996C50.2413 33.1385 49.5211 33.7662 48.3007 33.8095ZM47.9406 33.4632V30.7359C46.9403 30.7792 46.3601 31.2554 46.3601 32.0996C46.3601 32.9437 46.9603 33.4199 47.9406 33.4632ZM49.8812 32.0996C49.8812 31.2554 49.301 30.7792 48.3007 30.7359V33.4632C49.301 33.4199 49.8812 32.9437 49.8812 32.0996Z" fill="#1D1D1B"/>
<path d="M51.0216 31.9913C51.0216 30.8441 51.8219 30 52.9222 30C54.0225 30 54.8428 30.8441 54.8428 31.9913C54.8428 33.1385 54.0225 34.0043 52.9222 34.0043C52.6731 34.0163 52.4243 33.9727 52.1914 33.8763C51.9585 33.7799 51.7463 33.6328 51.5681 33.4441C51.3899 33.2553 51.2495 33.029 51.1555 32.7791C51.0615 32.5292 51.0159 32.2611 51.0216 31.9913ZM54.4427 31.9913C54.4483 31.7746 54.4127 31.559 54.3381 31.3578C54.2634 31.1567 54.1513 30.9743 54.0086 30.822C53.866 30.6698 53.696 30.5509 53.5091 30.4727C53.3222 30.3946 53.1224 30.359 52.9222 30.368C52.722 30.359 52.5222 30.3946 52.3353 30.4727C52.1484 30.5509 51.9784 30.6698 51.8358 30.822C51.6932 30.9743 51.581 31.1567 51.5064 31.3578C51.4317 31.559 51.3961 31.7746 51.4017 31.9913C51.3962 32.209 51.4318 32.4256 51.5062 32.6278C51.5807 32.8301 51.6925 33.0139 51.8348 33.1678C51.9771 33.3218 52.1469 33.4427 52.3339 33.5233C52.5209 33.6039 52.721 33.6423 52.9222 33.6364C53.1234 33.6423 53.3236 33.6039 53.5105 33.5233C53.6975 33.4427 53.8673 33.3218 54.0096 33.1678C54.1519 33.0139 54.2637 32.8301 54.3382 32.6278C54.4126 32.4256 54.4482 32.209 54.4427 31.9913Z" fill="#1D1D1B"/>
<path d="M59.0038 30V33.9394H58.6237V32.1212H56.343V33.9394H55.9629V30H56.343V31.7532H58.6237V30H59.0038Z" fill="#1D1D1B"/>
<path d="M63.725 33.5931V34.8268H63.3649V33.9394H60.1839V34.8268H59.8238V33.5931H60.0039C60.5241 33.5498 60.6241 32.5324 60.6641 31.277L60.7241 30H63.1849V33.5931H63.725ZM60.5641 33.5931H62.8048V30.3679H61.0642L61.0242 31.3203C61.0042 32.3376 60.9042 33.29 60.5641 33.5931Z" fill="#1D1D1B"/>
<path d="M69.1467 31.3636C69.1467 32.1861 68.5866 32.7056 67.6663 32.7056H66.686V33.9394H66.2859V30H67.6663C68.5866 30 69.1467 30.5195 69.1467 31.3636ZM68.7666 31.3636C68.7666 30.7359 68.3665 30.3679 67.6463 30.3679H66.686V32.3376H67.6463C68.3665 32.3376 68.7666 31.9697 68.7666 31.3636Z" fill="#1D1D1B"/>
<path d="M73.048 31.7316V33.961H72.6679V32.8138H70.3872V33.961H70.007V31.7316C70.007 30.5844 70.6072 30 71.5275 30C72.4478 30 73.048 30.5844 73.048 31.7316ZM72.6679 32.4459V31.6883C72.6679 30.8009 72.2277 30.368 71.5275 30.368C70.8273 30.368 70.3872 30.8009 70.3872 31.6883V32.4459H72.6679Z" fill="#1D1D1B"/>
<path d="M76.7695 32.8788C76.7695 33.5931 76.0892 34.026 75.329 34.026C74.8388 34.0345 74.3624 33.8499 73.9886 33.5065L74.1286 33.2251C74.4575 33.5104 74.8676 33.6634 75.289 33.658C75.8892 33.658 76.3893 33.355 76.3893 32.8355C76.3893 32.316 76.0292 32.1212 75.429 32.1212H74.6488V31.7749H75.409C75.9292 31.7749 76.2293 31.5368 76.2293 31.1039C76.2293 30.671 75.7892 30.368 75.269 30.368C74.9003 30.3635 74.5385 30.4764 74.2287 30.6926L74.1086 30.3463C74.4605 30.1225 74.8608 30.003 75.269 30C76.0092 30 76.6094 30.3896 76.6094 31.0606C76.6152 31.2572 76.5589 31.4501 76.4498 31.6075C76.3407 31.7648 76.1853 31.8773 76.0092 31.9264C76.4894 32.0563 76.7695 32.4026 76.7695 32.8788Z" fill="#1D1D1B"/>
<path d="M80.8711 32.8788C80.8711 33.5498 80.431 33.9394 79.5507 33.9394H77.9302V30H79.4507C80.2109 30 80.691 30.3463 80.691 31.0173C80.7015 31.2175 80.6473 31.4155 80.5379 31.5773C80.4284 31.7392 80.2704 31.8549 80.0909 31.9047C80.611 32.0346 80.8711 32.3593 80.8711 32.8788ZM78.3103 31.7965H79.4307C79.9908 31.7965 80.3109 31.5368 80.3109 31.0606C80.3109 30.5844 79.9908 30.3463 79.4307 30.3463H78.3103V31.7965ZM80.491 32.8571C80.491 32.3376 80.1709 32.0995 79.5507 32.0995H78.3103V33.6147H79.5507C80.1709 33.6147 80.491 33.3766 80.491 32.8571Z" fill="#1D1D1B"/>
<path d="M82.0508 30H82.4309V33.2684L84.7517 30H85.0918V33.9394H84.7116V30.6926L82.3909 33.9394H82.0508V30Z" fill="#1D1D1B"/>
<path d="M88.9132 30.3679H87.6328V33.9394H87.2527V30.3679H85.9723V30H88.9132V30.3679Z" fill="#1D1D1B"/>
<path d="M89.7932 30H90.1733V33.2684L92.514 30H92.8541V33.9394H92.474V30.6926L90.1533 33.9394H89.7932V30Z" fill="#1D1D1B"/>
<path d="M96.8755 30V33.9394H96.4953V32.7489H95.1949L94.4347 33.9394H94.0346L94.8548 32.6623C94.605 32.5879 94.3868 32.4222 94.2372 32.1933C94.0876 31.9644 94.016 31.6865 94.0346 31.4069C94.0346 30.4978 94.5948 30 95.455 30H96.8755ZM95.435 32.4026H96.4953V30.3679H95.475C94.7948 30.3679 94.4147 30.7143 94.4147 31.3853C94.4147 32.0563 94.7548 32.4026 95.435 32.4026Z" fill="#1D1D1B"/>
<path d="M99.5768 31.9929C99.5768 30.8457 100.377 30.0016 101.477 30.0016C101.725 29.9907 101.971 30.0351 102.202 30.1319C102.432 30.2288 102.642 30.376 102.818 30.5643L102.558 30.8241C102.42 30.6721 102.255 30.5531 102.072 30.4747C101.89 30.3964 101.694 30.3606 101.497 30.3695C101.296 30.3607 101.096 30.3963 100.908 30.4742C100.72 30.5521 100.548 30.6706 100.404 30.8226C100.26 30.9745 100.146 31.1566 100.069 31.3579C99.9922 31.5591 99.954 31.7752 99.9569 31.9929C99.9542 32.2116 99.9923 32.4287 100.069 32.631C100.146 32.8334 100.259 33.0169 100.403 33.1705C100.547 33.3242 100.718 33.4448 100.906 33.5251C101.094 33.6054 101.295 33.6438 101.497 33.6379C101.695 33.6428 101.891 33.6029 102.074 33.5209C102.257 33.4389 102.421 33.3166 102.558 33.1618L102.818 33.4215C102.646 33.6171 102.438 33.7705 102.206 33.8713C101.975 33.9722 101.726 34.018 101.477 34.0059C101.228 34.0178 100.98 33.9743 100.747 33.8779C100.514 33.7815 100.302 33.6344 100.123 33.4457C99.9451 33.2569 99.8047 33.0306 99.7106 32.7807C99.6166 32.5308 99.5711 32.2627 99.5768 31.9929Z" fill="#1D1D1B"/>
<path d="M111.9 33.5931V34.8701H111.54V33.9394H108.379V30H108.739V33.5931H110.94V30H111.32V33.5931H111.9Z" fill="#1D1D1B"/>
<path d="M112.881 30H113.261V33.2684L115.582 30H115.942V33.9394H115.562V30.6926L113.221 33.9394H112.881V30Z" fill="#1D1D1B"/>
<path d="M120.363 31.7316V33.961H119.983V32.8138H117.702V33.961H117.322V31.7316C117.322 30.5844 117.922 30 118.843 30C119.763 30 120.363 30.5844 120.363 31.7316ZM119.983 32.4459V31.6883C119.983 30.8009 119.543 30.368 118.843 30.368C118.142 30.368 117.702 30.8009 117.702 31.6883V32.4459H119.983Z" fill="#1D1D1B"/>
<path d="M124.544 30.0216V33.961H124.164V30.3896H122.403L122.363 31.7099C122.323 33.29 122.083 34.0043 121.423 34.0043C121.328 34.0101 121.233 33.9954 121.143 33.961V33.5931H121.323C121.783 33.5931 121.963 33.0303 122.003 31.6883L122.063 30L124.544 30.0216Z" fill="#1D1D1B"/>
<path d="M128.825 32.6407C128.825 33.5065 128.325 33.9394 127.425 33.9394H125.984V30H126.364V31.4069H127.505C128.365 31.4069 128.825 31.8398 128.825 32.6407ZM128.445 32.6623C128.445 32.0346 128.105 31.7532 127.425 31.7532H126.364V33.6147H127.425C128.085 33.6147 128.445 33.29 128.445 32.6623Z" fill="#1D1D1B"/>
<path d="M132.927 30V33.9394H132.547V32.1212H130.266V33.9394H129.886V30H130.266V31.7532H132.547V30H132.927Z" fill="#1D1D1B"/>
<path d="M137.208 32.6407C137.208 33.5065 136.708 33.9394 135.807 33.9394H134.367V30H134.747V31.4069H135.887C136.748 31.4069 137.208 31.8398 137.208 32.6407ZM136.828 32.6623C136.828 32.0346 136.488 31.7532 135.807 31.7532H134.747V33.6147H135.807C136.468 33.6147 136.828 33.29 136.828 32.6623ZM137.848 30H138.228V33.9394H137.848V30Z" fill="#1D1D1B"/>
<path d="M139.688 30L140.729 31.5584L141.769 30H142.209L140.969 31.9047L142.309 33.9394H141.849L140.729 32.2511L139.608 33.9394H139.148L140.489 31.9047L139.248 30H139.688Z" fill="#1D1D1B"/>
<path d="M147.872 30V33.9394H147.512V30.3679H145.191V33.9394H144.811V30H147.872Z" fill="#1D1D1B"/>
<path d="M152.153 31.4719C152.153 32.3809 151.633 32.9221 150.773 32.9221C150.355 32.9221 149.949 32.778 149.612 32.5108V33.961H149.232V31.5368C149.232 30.5628 149.752 30 150.672 30C151.593 30 152.153 30.5628 152.153 31.4719ZM151.773 31.4935C151.773 30.8009 151.373 30.368 150.693 30.368C150.012 30.368 149.612 30.8009 149.612 31.5368V32.1212C149.911 32.4204 150.305 32.5833 150.713 32.5758C151.373 32.5758 151.773 32.1645 151.773 31.4935Z" fill="#1D1D1B"/>
<path d="M152.913 31.9913C152.913 30.8441 153.733 30 154.833 30C155.934 30 156.734 30.8441 156.734 31.9913C156.74 32.2611 156.694 32.5292 156.6 32.7791C156.506 33.029 156.366 33.2553 156.188 33.4441C156.009 33.6328 155.797 33.7799 155.564 33.8763C155.331 33.9727 155.083 34.0163 154.833 34.0043C154.583 34.0161 154.334 33.9726 154.1 33.8765C153.866 33.7803 153.652 33.6335 153.473 33.4451C153.293 33.2567 153.151 33.0306 153.054 32.7806C152.958 32.5307 152.91 32.2621 152.913 31.9913ZM156.354 31.9913C156.36 31.7746 156.324 31.559 156.249 31.3578C156.175 31.1567 156.063 30.9743 155.92 30.822C155.777 30.6698 155.607 30.5509 155.42 30.4727C155.233 30.3946 155.034 30.359 154.833 30.368C154.632 30.3591 154.432 30.3947 154.244 30.4726C154.056 30.5505 153.885 30.669 153.74 30.821C153.596 30.9729 153.482 31.1551 153.405 31.3563C153.328 31.5575 153.29 31.7736 153.293 31.9913C153.287 32.2109 153.324 32.4293 153.399 32.6331C153.475 32.8369 153.588 33.0217 153.733 33.1759C153.877 33.3302 154.05 33.4507 154.239 33.5299C154.428 33.6091 154.631 33.6453 154.833 33.6364C155.035 33.6423 155.235 33.6039 155.422 33.5233C155.609 33.4427 155.779 33.3218 155.921 33.1678C156.063 33.0139 156.175 32.8301 156.249 32.6278C156.324 32.4256 156.359 32.209 156.354 31.9913Z" fill="#1D1D1B"/>
<path d="M160.455 33.5931V33.9394H157.875V30H160.375V30.3679H158.255V31.7749H160.135V32.1212H158.255V33.5931H160.455Z" fill="#1D1D1B"/>
<path d="M162.716 32.1428H161.876V33.9394H161.516V30H161.876V31.7749H162.716L163.957 30H164.357L163.016 31.9264L164.437 33.9394H163.997L162.716 32.1428Z" fill="#1D1D1B"/>
<path d="M167.597 30.3679H166.317V33.9394H165.937V30.3679H164.656V30H167.597V30.3679Z" fill="#1D1D1B"/>
<path d="M168.097 31.9913C168.097 30.8441 168.917 30 170.018 30C171.118 30 171.938 30.8441 171.938 31.9913C171.938 33.1385 171.118 34.0043 170.018 34.0043C169.768 34.0161 169.518 33.9726 169.284 33.8765C169.05 33.7803 168.837 33.6335 168.657 33.4451C168.477 33.2567 168.335 33.0306 168.239 32.7806C168.142 32.5307 168.094 32.2621 168.097 31.9913ZM171.538 31.9913C171.544 31.7746 171.508 31.559 171.434 31.3578C171.359 31.1567 171.247 30.9743 171.104 30.822C170.962 30.6698 170.791 30.5509 170.605 30.4727C170.418 30.3946 170.218 30.359 170.018 30.368C169.817 30.3591 169.616 30.3947 169.428 30.4726C169.24 30.5505 169.069 30.669 168.925 30.821C168.78 30.9729 168.666 31.1551 168.589 31.3563C168.513 31.5575 168.474 31.7736 168.477 31.9913C168.472 32.2109 168.508 32.4293 168.583 32.6331C168.659 32.8369 168.773 33.0217 168.917 33.1759C169.062 33.3302 169.234 33.4507 169.423 33.5299C169.613 33.6091 169.815 33.6453 170.018 33.6364C170.219 33.6423 170.419 33.6039 170.606 33.5233C170.793 33.4427 170.963 33.3218 171.105 33.1678C171.247 33.0139 171.359 32.8301 171.434 32.6278C171.508 32.4256 171.544 32.209 171.538 31.9913Z" fill="#1D1D1B"/>
<path d="M175.999 32.8788C175.999 33.5498 175.559 33.9394 174.679 33.9394H173.059V30H174.579C175.339 30 175.819 30.3463 175.819 31.0173C175.826 31.2167 175.771 31.4127 175.662 31.5737C175.553 31.7347 175.397 31.8513 175.219 31.9047C175.719 32.0346 175.999 32.3593 175.999 32.8788ZM173.439 31.7965H174.559C175.099 31.7965 175.419 31.5368 175.419 31.0606C175.419 30.5844 175.099 30.3463 174.559 30.3463H173.439V31.7965ZM175.619 32.8571C175.619 32.3376 175.279 32.0995 174.679 32.0995H173.439V33.6147H174.679C175.279 33.6147 175.619 33.3766 175.619 32.8571Z" fill="#1D1D1B"/>
<path d="M103.819 31.9913C103.819 30.8441 104.619 30 105.719 30C106.82 30 107.64 30.8441 107.64 31.9913C107.64 33.1385 106.82 34.0043 105.719 34.0043C105.47 34.0163 105.221 33.9727 104.989 33.8763C104.756 33.7799 104.543 33.6328 104.365 33.4441C104.187 33.2553 104.047 33.029 103.953 32.7791C103.859 32.5292 103.813 32.2611 103.819 31.9913ZM107.24 31.9913C107.245 31.7746 107.21 31.559 107.135 31.3578C107.061 31.1567 106.948 30.9743 106.806 30.822C106.663 30.6698 106.493 30.5509 106.306 30.4727C106.119 30.3946 105.92 30.359 105.719 30.368C105.519 30.359 105.319 30.3946 105.132 30.4727C104.946 30.5509 104.776 30.6698 104.633 30.822C104.49 30.9743 104.378 31.1567 104.303 31.3578C104.229 31.559 104.193 31.7746 104.199 31.9913C104.193 32.209 104.229 32.4256 104.303 32.6278C104.378 32.8301 104.49 33.0139 104.632 33.1678C104.774 33.3218 104.944 33.4427 105.131 33.5233C105.318 33.6039 105.518 33.6423 105.719 33.6364C105.921 33.6423 106.121 33.6039 106.308 33.5233C106.495 33.4427 106.664 33.3218 106.807 33.1678C106.949 33.0139 107.061 32.8301 107.135 32.6278C107.21 32.4256 107.245 32.209 107.24 31.9913Z" fill="#1D1D1B"/>
</g>
<path d="M46 5V19.771C46 19.8837 46.0441 19.9918 46.1227 20.0715C46.2012 20.1512 46.3078 20.1959 46.4188 20.1959H47.5358C47.6468 20.1959 47.7534 20.1512 47.8319 20.0715C47.9105 19.9918 47.9546 19.8837 47.9546 19.771V7.0032H56.4112V19.771C56.4163 19.8855 56.4648 19.9936 56.5466 20.0728C56.6283 20.1519 56.737 20.196 56.85 20.1959H57.947C58.058 20.1959 58.1646 20.1512 58.2431 20.0715C58.3217 19.9918 58.3658 19.8837 58.3658 19.771V5H46Z" fill="#1D1D1B"/>
<path d="M70.8118 14.9958C70.7796 14.1859 70.5969 13.3896 70.2733 12.6486C69.8994 11.7686 69.283 11.0168 68.4982 10.4835C67.6933 9.94878 66.7477 9.67368 65.7857 9.69439C64.8654 9.68892 63.9613 9.94096 63.173 10.4228C62.3837 10.883 61.735 11.5551 61.2982 12.3653C60.8404 13.1935 60.6 14.1272 60.6 15.0767C60.6 16.0262 60.8404 16.9599 61.2982 17.7881C61.7321 18.6101 62.3799 19.2956 63.1712 19.77C63.9624 20.2445 64.8667 20.4898 65.7857 20.4792C66.6928 20.4915 67.5871 20.2612 68.3786 19.8115C68.7708 19.6 69.1276 19.3268 69.4356 19.0021C69.7629 18.671 70.0446 18.2967 70.2733 17.8893C69.9231 17.6483 69.5097 17.5195 69.0866 17.5195C68.6635 17.5195 68.2501 17.6483 67.8999 17.8893L67.5608 18.0916C67.0123 18.3785 66.4028 18.5244 65.7857 18.5165C65.0147 18.5361 64.2631 18.2699 63.6716 17.7679C63.0922 17.2543 62.7224 16.5401 62.6345 15.7647H70.0938C70.1907 15.762 70.2862 15.7401 70.3747 15.7C70.4633 15.6599 70.5432 15.6026 70.6099 15.5311C70.6765 15.4597 70.7287 15.3757 70.7634 15.2838C70.798 15.192 70.8145 15.0941 70.8118 14.9958ZM62.6544 14.328C62.7686 13.5739 63.1432 12.8854 63.7115 12.3855C64.2918 11.8935 65.0298 11.6343 65.7857 11.6571C66.5313 11.6408 67.2587 11.8915 67.84 12.3653C68.4216 12.86 68.793 13.5629 68.8772 14.328H62.6544Z" fill="#1D1D1B"/>
<path d="M73.1246 24H74.2415C74.3579 24 74.4695 23.9531 74.5518 23.8696C74.6341 23.7861 74.6803 23.6729 74.6803 23.5548L74.5008 16.9787H74.8598C75.0792 18.132 75.5379 19.0021 76.2161 19.6091C76.8942 20.2162 77.7718 20.4792 78.8288 20.4792C79.6522 20.4813 80.4576 20.2348 81.1424 19.771C81.8533 19.2915 82.4249 18.6278 82.7979 17.8488C83.1971 17.0458 83.4022 16.158 83.3962 15.2588C83.4082 14.281 83.2037 13.3129 82.7979 12.426C82.4159 11.5957 81.8154 10.8885 81.0627 10.3823C80.3127 9.88386 79.4248 9.64272 78.5297 9.69435C77.7039 9.72166 76.9107 10.0279 76.2759 10.5644C75.5978 11.158 75.139 12.0078 74.8997 13.1139H74.5008L74.5606 11.8999C74.5767 11.8616 74.5835 11.82 74.5806 11.7785C74.5806 11.2687 74.381 10.7797 74.0256 10.4192C73.6703 10.0588 73.1883 9.85623 72.6858 9.85623V23.5548C72.6858 23.6729 72.732 23.7861 72.8143 23.8696C72.8966 23.9531 73.0082 24 73.1246 24ZM81.0028 16.8775C80.7153 17.3586 80.3099 17.756 79.8261 18.0309C79.3172 18.3086 78.7485 18.4545 78.1707 18.4558C77.6382 18.4661 77.1134 18.326 76.6548 18.0511C76.1227 17.741 75.6873 17.2852 75.3983 16.7359C75.1026 16.2129 74.951 15.6188 74.9595 15.016C74.963 14.4466 75.1143 13.8883 75.3983 13.3972C75.7036 12.8743 76.1453 12.4472 76.6748 12.1629C77.1453 11.9238 77.6643 11.7991 78.1906 11.7987C78.7605 11.8124 79.3198 11.9577 79.8261 12.2236C80.3161 12.5082 80.7223 12.9203 81.0028 13.4175C81.2855 13.9594 81.4295 14.5647 81.4217 15.1778C81.4327 15.772 81.2882 16.3585 81.0028 16.8775Z" fill="#1D1D1B"/>
<path d="M92.6712 17.2822C92.3537 17.6629 91.9557 17.9661 91.5068 18.1693C91.0579 18.3725 90.5697 18.4704 90.0783 18.4558C89.6549 18.4716 89.2328 18.3989 88.8383 18.2423C88.4437 18.0856 88.0851 17.8484 87.7847 17.5452C87.2063 16.9382 86.9071 16.1086 86.9071 15.0767C86.894 14.463 87.0383 13.8563 87.326 13.3163C87.5787 12.8238 87.9666 12.4162 88.4429 12.1427C88.9402 11.8537 89.5054 11.7069 90.0783 11.7178C90.694 11.7103 91.3002 11.8711 91.8335 12.1832C92.2174 12.423 92.5553 12.7315 92.8307 13.0937C92.9477 13.2365 93.114 13.3286 93.2956 13.3511C93.4773 13.3737 93.6606 13.325 93.808 13.2151L94.7654 12.5474C94.3422 11.6721 93.6769 10.9409 92.8507 10.443C91.9672 9.92441 90.959 9.6652 89.9387 9.69435C89.0239 9.68295 88.1247 9.93557 87.3459 10.4228C86.5885 10.8976 85.9691 11.5679 85.5509 12.3653C85.1193 13.202 84.8938 14.1323 84.8938 15.0767C84.8938 16.021 85.1193 16.9513 85.5509 17.7881C85.968 18.5969 86.587 19.2806 87.3459 19.771C88.1305 20.2422 89.027 20.4871 89.9387 20.4792C90.9108 20.5062 91.8731 20.2761 92.731 19.8115C93.5234 19.3646 94.1738 18.6978 94.6058 17.8892L93.6086 17.181C93.4666 17.0803 93.2935 17.0351 93.1212 17.0537C92.9489 17.0723 92.7891 17.1534 92.6712 17.2822Z" fill="#1D1D1B"/>
<path d="M96.6407 9.85623V19.771C96.6407 19.8837 96.6848 19.9918 96.7633 20.0715C96.8419 20.1512 96.9484 20.1959 97.0595 20.1959H98.0767C98.1878 20.1959 98.2943 20.1512 98.3729 20.0715C98.4514 19.9918 98.4955 19.8837 98.4955 19.771V11.7785H104.619V19.771C104.624 19.8855 104.672 19.9936 104.754 20.0728C104.836 20.1519 104.944 20.1961 105.057 20.1959H106.095C106.206 20.1959 106.312 20.1512 106.391 20.0715C106.469 19.9918 106.513 19.8837 106.513 19.771V9.85623H96.6407Z" fill="#1D1D1B"/>
<path d="M118.599 14.9958C118.567 14.186 118.385 13.3896 118.061 12.6486C117.687 11.7686 117.071 11.0168 116.286 10.4835C115.48 9.95109 114.535 9.6762 113.573 9.69439C112.653 9.68892 111.749 9.94097 110.961 10.4228C110.17 10.8874 109.515 11.558 109.066 12.3653C108.621 13.1977 108.388 14.1297 108.388 15.0767C108.388 16.0237 108.621 16.9557 109.066 17.7881C109.749 19.0055 110.877 19.9007 112.206 20.2795C113.536 20.6583 114.958 20.4901 116.166 19.8115C116.555 19.5948 116.911 19.3222 117.223 19.0021C117.55 18.671 117.832 18.2967 118.061 17.8893C117.708 17.6466 117.291 17.5169 116.864 17.5169C116.438 17.5169 116.021 17.6466 115.668 17.8893C115.562 17.9685 115.448 18.0363 115.328 18.0916C114.788 18.3809 114.184 18.527 113.573 18.5165C112.802 18.5361 112.051 18.2699 111.459 17.7679C110.881 17.2505 110.506 16.5395 110.402 15.7647H117.881C117.978 15.762 118.074 15.7401 118.162 15.7C118.251 15.6599 118.331 15.6026 118.397 15.5312C118.464 15.4597 118.516 15.3757 118.551 15.2838C118.586 15.192 118.602 15.0941 118.599 14.9958ZM110.422 14.328C110.543 13.5716 110.925 12.8833 111.499 12.3855C112.079 11.8935 112.817 11.6343 113.573 11.6571C114.319 11.6425 115.045 11.8931 115.628 12.3653C116.203 12.8652 116.573 13.5653 116.665 14.328H110.422Z" fill="#1D1D1B"/>
<path d="M120.893 20.1959H121.91C122.021 20.1959 122.128 20.1512 122.206 20.0715C122.285 19.9918 122.329 19.8837 122.329 19.771V16.0075H125.321L128.193 20.1959C128.397 20.1961 128.597 20.1395 128.772 20.0323C128.947 19.925 129.089 19.7713 129.184 19.5877C129.278 19.4042 129.321 19.1979 129.308 18.9912C129.296 18.7845 129.227 18.5853 129.11 18.4153L126.797 15.0362L129.11 11.6571C129.255 11.4737 129.333 11.2447 129.33 11.0096C129.33 10.7037 129.21 10.4103 128.997 10.194C128.784 9.97775 128.494 9.85623 128.193 9.85623L125.321 14.065H122.329V11.7583C122.329 11.2573 122.134 10.7766 121.787 10.4204C121.44 10.0643 120.968 9.86156 120.474 9.85623V19.771C120.474 19.8837 120.518 19.9918 120.597 20.0715C120.676 20.1512 120.782 20.1959 120.893 20.1959Z" fill="#1D1D1B"/>
<path d="M135.313 20.1959H137.188V11.7785H139.282C139.785 11.7785 140.267 11.576 140.622 11.2155C140.977 10.855 141.177 10.366 141.177 9.85623H131.284C131.284 10.366 131.484 10.855 131.839 11.2155C132.194 11.576 132.676 11.7785 133.179 11.7785H135.293V20.1959H135.313Z" fill="#1D1D1B"/>
<path d="M149.334 11.5964L144.746 17.6869V11.7583C144.749 11.5105 144.702 11.2648 144.61 11.0354C144.517 10.8061 144.381 10.5978 144.208 10.4228C143.854 10.0619 143.373 9.85811 142.872 9.85623V20.1959H142.852C143.51 20.196 144.16 20.0429 144.752 19.7482C145.343 19.4535 145.86 19.0253 146.262 18.4963L150.869 12.345V18.2737C150.869 18.5259 150.918 18.7757 151.014 19.0085C151.11 19.2412 151.251 19.4523 151.428 19.6294C151.6 19.8118 151.808 19.9563 152.038 20.0537C152.268 20.1512 152.515 20.1996 152.764 20.1959V9.85623C152.099 9.85934 151.443 10.0179 150.849 10.3197C150.254 10.6215 149.735 11.0584 149.334 11.5964Z" fill="#1D1D1B"/>
<path d="M163.615 15.4409C163.036 14.9755 162.338 14.8541 161.441 14.7732V14.6113C162.025 14.5356 162.57 14.2734 162.997 13.8626C163.411 13.3898 163.632 12.7749 163.615 12.1427C163.614 11.8171 163.533 11.4968 163.38 11.2107C163.227 10.9246 163.006 10.6816 162.737 10.5037C162.159 10.0788 161.261 9.85623 160.025 9.85623H155.537C155.345 9.8615 155.162 9.9427 155.028 10.0825C154.894 10.2224 154.819 10.4098 154.819 10.6049V20.1959H160.025C161.521 20.1959 162.618 19.9531 163.356 19.4675C163.702 19.2555 163.987 18.9553 164.183 18.5967C164.379 18.2382 164.478 17.8338 164.473 17.4239C164.479 17.0501 164.406 16.6794 164.258 16.3371C164.11 15.9948 163.89 15.6891 163.615 15.4409ZM156.754 11.7583H160.543C160.862 11.7927 161.172 11.8817 161.461 12.0213C161.631 12.1105 161.773 12.2477 161.868 12.4164C161.964 12.585 162.009 12.778 161.999 12.9723C162.005 13.1713 161.958 13.3683 161.864 13.5427C161.769 13.7171 161.63 13.8625 161.461 13.9638C161.159 14.1287 160.826 14.2253 160.484 14.2471H156.754V11.7583ZM161.84 17.8892C161.539 18.0573 161.205 18.1541 160.863 18.1725C160.585 18.2159 160.305 18.2362 160.025 18.2332H156.754V15.6432H160.025L160.922 15.6837C161.247 15.7186 161.564 15.8074 161.86 15.9468C162.03 16.036 162.172 16.1731 162.267 16.3418C162.363 16.5105 162.408 16.7035 162.398 16.8978C162.398 17.098 162.346 17.2947 162.248 17.4685C162.151 17.6424 162.01 17.7874 161.84 17.8892Z" fill="#1D1D1B"/>
<path d="M174.783 10.9287C173.959 10.1193 172.762 9.71463 171.193 9.71463C170.319 9.68915 169.455 9.91351 168.7 10.3621C167.947 10.8595 167.308 11.515 166.825 12.2844L166.885 12.3248C167.271 12.5898 167.729 12.7245 168.195 12.71C168.66 12.6955 169.109 12.5324 169.478 12.2439L169.618 12.163C170.089 11.8643 170.638 11.7163 171.193 11.738C172.031 11.738 172.709 11.9202 173.208 12.3046C173.461 12.494 173.67 12.7368 173.822 13.0163C173.973 13.2957 174.063 13.6052 174.085 13.9234H171.732C170.037 13.9234 168.76 14.2269 167.882 14.7934C167.005 15.36 166.566 16.2301 166.566 17.3834C166.566 18.5368 166.865 19.0628 167.464 19.6294C168.062 20.196 168.999 20.459 170.256 20.459C171.512 20.459 172.071 20.1757 172.729 19.5687C173.387 18.9617 173.846 18.0714 174.105 16.8776H174.384L174.265 18.2535C174.248 18.3127 174.242 18.3742 174.245 18.4356C174.25 18.9043 174.437 19.352 174.766 19.6816C175.095 20.0112 175.538 20.196 176 20.196V14.328C176 12.8509 175.601 11.7178 174.783 10.9287ZM172.869 17.6262C172.29 18.1523 171.512 18.4356 170.495 18.4356C169.837 18.4356 169.358 18.3142 169.039 18.0511C168.879 17.9388 168.749 17.7871 168.662 17.6103C168.575 17.4334 168.533 17.237 168.541 17.0394C168.534 16.7758 168.604 16.5159 168.742 16.2926C168.881 16.0694 169.081 15.8927 169.318 15.7849C169.837 15.5219 170.655 15.4005 171.732 15.4005H173.986C173.806 16.3312 173.447 17.0799 172.869 17.6262Z" fill="#1D1D1B"/>
<path d="M33.9291 29.6899L33.8688 29.7503C33.7978 29.8661 33.6846 29.9497 33.5532 29.9835C33.4217 30.0173 33.2823 29.9987 33.1643 29.9316C28.2697 27.0384 22.6934 25.5021 17.0088 25.4809C11.3242 25.4596 5.73656 26.9542 0.820511 29.8108C0.702522 29.8779 0.563107 29.8965 0.431678 29.8626C0.300249 29.8288 0.187087 29.7452 0.116072 29.6295L0.0758223 29.5489C0.0399388 29.4911 0.0161262 29.4267 0.00581945 29.3595C-0.00448735 29.2922 -0.00107892 29.2236 0.0158497 29.1577C0.0327783 29.0918 0.0628764 29.03 0.104316 28.9761C0.145756 28.9222 0.197681 28.8772 0.256963 28.8439C5.15108 26.0374 9.2176 21.9869 12.045 17.1023C14.8724 12.2177 16.3604 6.67228 16.3584 1.02726V0.523704C16.3583 0.38823 16.4107 0.257986 16.5045 0.160332C16.5983 0.0626773 16.7263 0.00521051 16.8616 0C16.9303 0 16.9984 0.0135446 17.0619 0.0398631C17.1253 0.0661817 17.183 0.104761 17.2316 0.153392C17.2802 0.202022 17.3188 0.259756 17.3451 0.323294C17.3714 0.386833 17.3849 0.45493 17.3849 0.523704V1.02726C17.3801 6.72049 18.8918 12.3121 21.7644 17.2262C24.637 22.1403 28.7666 26.1992 33.7279 28.9849C33.7888 29.0165 33.8427 29.0601 33.8862 29.1133C33.9296 29.1664 33.9618 29.2279 33.9806 29.2939C33.9995 29.36 34.0046 29.4291 33.9958 29.4972C33.9869 29.5653 33.9643 29.6309 33.9291 29.6899Z" fill="#40AD74"/>
<path d="M30.9999 20.1112V21.4496C31.0019 21.5482 30.9771 21.6455 30.9283 21.7308C30.8795 21.8162 30.8085 21.8863 30.7231 21.9337C30.6376 21.9811 30.541 22.0038 30.4436 21.9995C30.3463 21.9951 30.252 21.9638 30.171 21.909C29.1516 21.2251 28.2058 20.4351 27.3489 19.5519C24.1728 16.3569 22.2691 12.0908 22.0007 7.56646C21.9961 7.4743 22.015 7.38248 22.0554 7.2998C22.0959 7.21711 22.1567 7.14633 22.232 7.09422C22.3072 7.04211 22.3944 7.01041 22.4852 7.00216C22.576 6.99391 22.6674 7.00938 22.7506 7.04709C25.2149 8.1996 27.3014 10.0425 28.7633 12.3577C30.2253 14.6729 31.0014 17.3635 30.9999 20.1112Z" fill="#40AD74"/>
<path d="M10.0586 6.74346L11.1957 6.06422C11.2811 6.01846 11.3769 5.99647 11.4734 6.00046C11.5698 6.00446 11.6635 6.0343 11.745 6.08698C11.8266 6.13966 11.893 6.21331 11.9377 6.30051C11.9824 6.38771 12.0037 6.48537 11.9995 6.58364C11.92 7.81224 11.723 9.03 11.4113 10.2196C10.2619 14.5971 7.58518 18.3972 3.88297 20.9077C3.80663 20.9602 3.71816 20.9915 3.62631 20.9985C3.53446 21.0055 3.44241 20.988 3.35925 20.9476C3.2761 20.9073 3.20471 20.8455 3.15215 20.7684C3.09959 20.6913 3.06767 20.6016 3.05955 20.5081C2.81196 17.7719 3.33974 15.0208 4.5803 12.581C5.82086 10.1413 7.72214 8.11531 10.0586 6.74346Z" fill="#40AD74"/>
<path d="M9.42841 31.9024L8.28003 31.1616C8.19367 31.1101 8.12187 31.0335 8.07249 30.9401C8.02311 30.8466 7.99807 30.7401 8.00012 30.632C8.00216 30.524 8.03122 30.4186 8.08409 30.3276C8.13696 30.2365 8.21161 30.1632 8.29984 30.1158C9.39692 29.5219 10.5441 29.0476 11.7251 28.6995C16.0665 27.4106 20.6864 27.9143 24.7135 30.1158C24.7947 30.1626 24.8636 30.2315 24.9136 30.3161C24.9635 30.4006 24.9929 30.4979 24.9989 30.5985C25.0048 30.6992 24.9872 30.7998 24.9476 30.8908C24.9081 30.9817 24.8479 31.06 24.773 31.118C22.5512 32.8497 19.9248 33.8441 17.2051 33.9831C14.4854 34.1221 11.7865 33.4 9.42841 31.9024Z" fill="#40AD74"/>
<defs>
<clipPath id="clip0_405_13054">
<rect width="130" height="5" fill="white" transform="translate(46 30)"/>
</clipPath>
</defs>
</svg>
