<svg width="20" height="16" viewBox="0 0 20 16" fill="none" xmlns="http://www.w3.org/2000/svg">
<path d="M16 8L20 8L15 13L10 8L14 8C14 6.4087 13.3679 4.88258 12.2426 3.75736C11.1174 2.63214 9.5913 2 8 2C6.4087 2 4.88258 2.63214 3.75736 3.75736C2.63214 4.88258 2 6.4087 2 8C2 9.5913 2.63214 11.1174 3.75736 12.2426C4.88258 13.3679 6.4087 14 8 14L8 16C5.87827 16 3.84344 15.1571 2.34315 13.6569C0.842854 12.1566 7.00976e-08 10.1217 9.5399e-08 8C1.207e-07 5.87827 0.842854 3.84344 2.34315 2.34315C3.84344 0.842854 5.87827 -1.684e-07 8 -1.43099e-07C10.1217 -1.17797e-07 12.1566 0.842854 13.6569 2.34315C15.1571 3.84344 16 5.87827 16 8Z" fill="#737374"/>
</svg>
