<svg width="40" height="40" viewBox="0 0 40 40" fill="none" xmlns="http://www.w3.org/2000/svg">
<path d="M26 20L30 20L25 25L20 20L24 20C24 18.4087 23.3679 16.8826 22.2426 15.7574C21.1174 14.6321 19.5913 14 18 14C16.4087 14 14.8826 14.6321 13.7574 15.7574C12.6321 16.8826 12 18.4087 12 20C12 21.5913 12.6321 23.1174 13.7574 24.2426C14.8826 25.3679 16.4087 26 18 26L18 28C15.8783 28 13.8434 27.1571 12.3431 25.6569C10.8429 24.1566 10 22.1217 10 20C10 17.8783 10.8429 15.8434 12.3431 14.3431C13.8434 12.8429 15.8783 12 18 12C20.1217 12 22.1566 12.8429 23.6569 14.3431C25.1571 15.8434 26 17.8783 26 20Z" fill="#737374"/>
</svg>
