<svg width="15" height="15" viewBox="0 0 15 15" fill="none" xmlns="http://www.w3.org/2000/svg">
<path d="M6.00078 0.800781C7.37991 0.800781 8.70255 1.34864 9.67774 2.32383C10.6529 3.29901 11.2008 4.62166 11.2008 6.00078C11.2008 7.28878 10.7288 8.47278 9.95278 9.38478L10.1688 9.60078H10.8008L14.8008 13.6008L13.6008 14.8008L9.60078 10.8008V10.1688L9.38478 9.95278C8.47278 10.7288 7.28878 11.2008 6.00078 11.2008C4.62166 11.2008 3.29901 10.6529 2.32383 9.67774C1.34864 8.70255 0.800781 7.37991 0.800781 6.00078C0.800781 4.62166 1.34864 3.29901 2.32383 2.32383C3.29901 1.34864 4.62166 0.800781 6.00078 0.800781ZM6.00078 2.40078C4.00078 2.40078 2.40078 4.00078 2.40078 6.00078C2.40078 8.00078 4.00078 9.60078 6.00078 9.60078C8.00078 9.60078 9.60078 8.00078 9.60078 6.00078C9.60078 4.00078 8.00078 2.40078 6.00078 2.40078Z" fill="#DAE4E8"/>
</svg>
