<svg width="32" height="32" viewBox="0 0 32 32" fill="none" xmlns="http://www.w3.org/2000/svg">
<path d="M14.0008 8.80078C15.3799 8.80078 16.7025 9.34864 17.6777 10.3238C18.6529 11.299 19.2008 12.6217 19.2008 14.0008C19.2008 15.2888 18.7288 16.4728 17.9528 17.3848L18.1688 17.6008H18.8008L22.8008 21.6008L21.6008 22.8008L17.6008 18.8008V18.1688L17.3848 17.9528C16.4728 18.7288 15.2888 19.2008 14.0008 19.2008C12.6217 19.2008 11.299 18.6529 10.3238 17.6777C9.34864 16.7025 8.80078 15.3799 8.80078 14.0008C8.80078 12.6217 9.34864 11.299 10.3238 10.3238C11.299 9.34864 12.6217 8.80078 14.0008 8.80078ZM14.0008 10.4008C12.0008 10.4008 10.4008 12.0008 10.4008 14.0008C10.4008 16.0008 12.0008 17.6008 14.0008 17.6008C16.0008 17.6008 17.6008 16.0008 17.6008 14.0008C17.6008 12.0008 16.0008 10.4008 14.0008 10.4008Z" fill="#DAE4E8"/>
</svg>
