<svg width="32" height="32" viewBox="0 0 32 32" fill="none" xmlns="http://www.w3.org/2000/svg">
<path d="M15.9984 19.1996C16.4228 19.1996 16.8298 19.3682 17.1298 19.6682C17.4299 19.9683 17.5984 20.3753 17.5984 20.7996C17.5984 21.224 17.4299 21.6309 17.1298 21.931C16.8298 22.231 16.4228 22.3996 15.9984 22.3996C15.5741 22.3996 15.1671 22.231 14.8671 21.931C14.567 21.6309 14.3984 21.224 14.3984 20.7996C14.3984 20.3753 14.567 19.9683 14.8671 19.6682C15.1671 19.3682 15.5741 19.1996 15.9984 19.1996ZM15.9984 14.3996C16.4228 14.3996 16.8298 14.5682 17.1298 14.8682C17.4299 15.1683 17.5984 15.5753 17.5984 15.9996C17.5984 16.424 17.4299 16.8309 17.1298 17.131C16.8298 17.431 16.4228 17.5996 15.9984 17.5996C15.5741 17.5996 15.1671 17.431 14.8671 17.131C14.567 16.8309 14.3984 16.424 14.3984 15.9996C14.3984 15.5753 14.567 15.1683 14.8671 14.8682C15.1671 14.5682 15.5741 14.3996 15.9984 14.3996ZM15.9984 9.59961C16.4228 9.59961 16.8298 9.76818 17.1298 10.0682C17.4299 10.3683 17.5984 10.7753 17.5984 11.1996C17.5984 11.624 17.4299 12.0309 17.1298 12.331C16.8298 12.631 16.4228 12.7996 15.9984 12.7996C15.5741 12.7996 15.1671 12.631 14.8671 12.331C14.567 12.0309 14.3984 11.624 14.3984 11.1996C14.3984 10.7753 14.567 10.3683 14.8671 10.0682C15.1671 9.76818 15.5741 9.59961 15.9984 9.59961Z" fill="#737374"/>
</svg>
